ffmpeg version 4.2.7-0ubuntu0.1 Copyright (c) 2000-2022 the FFmpeg developers
  built with gcc 9 (Ubuntu 9.4.0-1ubuntu1~20.04.1)
  configuration: --prefix=/usr --extra-version=0ubuntu0.1 --toolchain=hardened --libdir=/usr/lib/x86_64-linux-gnu --incdir=/usr/include/x86_64-linux-gnu --arch=amd64 --enable-gpl --disable-stripping --enable-avresample --disable-filter=resample --enable-avisynth --enable-gnutls --enable-ladspa --enable-libaom --enable-libass --enable-libbluray --enable-libbs2b --enable-libcaca --enable-libcdio --enable-libcodec2 --enable-libflite --enable-libfontconfig --enable-libfreetype --enable-libfribidi --enable-libgme --enable-libgsm --enable-libjack --enable-libmp3lame --enable-libmysofa --enable-libopenjpeg --enable-libopenmpt --enable-libopus --enable-libpulse --enable-librsvg --enable-librubberband --enable-libshine --enable-libsnappy --enable-libsoxr --enable-libspeex --enable-libssh --enable-libtheora --enable-libtwolame --enable-libvidstab --enable-libvorbis --enable-libvpx --enable-libwavpack --enable-libwebp --enable-libx265 --enable-libxml2 --enable-libxvid --enable-libzmq --enable-libzvbi --enable-lv2 --enable-omx --enable-openal --enable-opencl --enable-opengl --enable-sdl2 --enable-libdc1394 --enable-libdrm --enable-libiec61883 --enable-nvenc --enable-chromaprint --enable-frei0r --enable-libx264 --enable-shared
  libavutil      56. 31.100 / 56. 31.100
  libavcodec     58. 54.100 / 58. 54.100
  libavformat    58. 29.100 / 58. 29.100
  libavdevice    58.  8.100 / 58.  8.100
  libavfilter     7. 57.100 /  7. 57.100
  libavresample   4.  0.  0 /  4.  0.  0
  libswscale      5.  5.100 /  5.  5.100
  libswresample   3.  5.100 /  3.  5.100
  libpostproc    55.  5.100 / 55.  5.100
[rawvideo @ 0x55bcaa3bf780] Estimating duration from bitrate, this may be inaccurate
Input #0, rawvideo, from 'output.yuv':
  Duration: 00:00:04.80, start: 0.000000, bitrate: 2488320 kb/s
    Stream #0:0: Video: rawvideo (I420 / 0x30323449), yuv420p, 3840x2160, 2488320 kb/s, 25 tbr, 25 tbn, 25 tbc
Stream mapping:
  Stream #0:0 -> #0:0 (rawvideo (native) -> h264 (libx264))
Press [q] to stop, [?] for help
[libx264 @ 0x55bcaa3c4d80] using cpu capabilities: MMX2 SSE2Fast SSSE3 SSE4.2 AVX
[libx264 @ 0x55bcaa3c4d80] profile High, level 5.1
Output #0, h264, to 'output_h264.264':
  Metadata:
    encoder         : Lavf58.29.100
    Stream #0:0: Video: h264 (libx264), yuv420p, 3840x2160, q=-1--1, 30 fps, 30 tbn, 30 tbc
    Metadata:
      encoder         : Lavc58.54.100 libx264
    Side data:
      cpb: bitrate max/min/avg: 0/0/0 buffer size: 0 vbv_delay: -1
frame=   21 fps=0.0 q=0.0 size=       0kB time=00:00:00.00 bitrate=N/A speed=   0x    frame=   45 fps= 43 q=0.0 size=       0kB time=00:00:00.00 bitrate=N/A speed=   0x    frame=   47 fps=9.7 q=0.0 size=       0kB time=00:00:00.00 bitrate=N/A speed=   0x    frame=   48 fps=5.2 q=0.0 size=       0kB time=00:00:00.00 bitrate=N/A speed=   0x    frame=   56 fps=5.7 q=0.0 size=       0kB time=00:00:00.00 bitrate=N/A speed=   0x    frame=   57 fps=3.1 q=29.0 size=     256kB time=-00:00:00.03 bitrate=N/A speed=N/A    frame=   64 fps=3.1 q=29.0 size=    2304kB time=00:00:00.20 bitrate=94371.8kbits/s speed=0.00983x    frame=   66 fps=3.1 q=29.0 size=    2560kB time=00:00:00.26 bitrate=78643.1kbits/s speed=0.0127x    frame=   68 fps=3.2 q=29.0 size=    3072kB time=00:00:00.33 bitrate=75497.5kbits/s speed=0.0154x    frame=   70 fps=2.5 q=29.0 size=    3840kB time=00:00:00.40 bitrate=78643.2kbits/s speed=0.0143x    frame=   79 fps=2.8 q=29.0 size=    5632kB time=00:00:00.70 bitrate=65910.5kbits/s speed=0.0245x    frame=   82 fps=2.7 q=29.0 size=    6144kB time=00:00:00.80 bitrate=62914.6kbits/s speed=0.0262x    frame=   83 fps=2.2 q=29.0 size=    6400kB time=00:00:00.83 bitrate=62914.6kbits/s speed=0.0223x    frame=   91 fps=2.4 q=29.0 size=    7936kB time=00:00:01.10 bitrate=59101.6kbits/s speed=0.029x    frame=   95 fps=2.0 q=29.0 size=    8704kB time=00:00:01.23 bitrate=57813.4kbits/s speed=0.0263x    frame=  102 fps=2.2 q=29.0 size=   10240kB time=00:00:01.46 bitrate=57195.0kbits/s speed=0.031x    frame=  107 fps=1.9 q=29.0 size=   11264kB time=00:00:01.63 bitrate=56494.7kbits/s speed=0.029x    frame=  115 fps=2.0 q=29.0 size=   12800kB time=00:00:01.90 bitrate=55188.2kbits/s speed=0.0335x    frame=  119 fps=2.0 q=29.0 size=   13568kB time=00:00:02.03 bitrate=54663.5kbits/s speed=0.0349x    frame=  120 fps=1.8 q=29.0 size=   14336kB time=00:00:02.06 bitrate=56826.0kbits/s speed=0.0314x    frame=  120 fps=1.6 q=-1.0 Lsize=   21735kB time=00:00:03.93 bitrate=45266.8kbits/s speed=0.0522x    
video:21735kB audio:0kB subtitle:0kB other streams:0kB global headers:0kB muxing overhead: 0.000000%
[libx264 @ 0x55bcaa3c4d80] frame I:4     Avg QP:23.81  size:490759
[libx264 @ 0x55bcaa3c4d80] frame P:67    Avg QP:26.30  size:212269
[libx264 @ 0x55bcaa3c4d80] frame B:49    Avg QP:26.74  size:123900
[libx264 @ 0x55bcaa3c4d80] consecutive B-frames: 45.0%  0.0%  5.0% 50.0%
[libx264 @ 0x55bcaa3c4d80] mb I  I16..4:  3.8% 87.4%  8.8%
[libx264 @ 0x55bcaa3c4d80] mb P  I16..4:  3.2% 26.8%  0.9%  P16..4: 50.8% 10.0%  5.3%  0.0%  0.0%    skip: 2.9%
[libx264 @ 0x55bcaa3c4d80] mb B  I16..4:  0.1%  2.3%  0.0%  B16..8: 53.4%  3.9%  0.7%  direct:15.4%  skip:24.2%  L0:47.4% L1:51.1% BI: 1.5%
[libx264 @ 0x55bcaa3c4d80] 8x8 transform intra:87.2% inter:85.6%
[libx264 @ 0x55bcaa3c4d80] coded y,uvDC,uvAC intra: 71.7% 93.8% 67.4% inter: 37.0% 76.1% 8.0%
[libx264 @ 0x55bcaa3c4d80] i16 v,h,dc,p:  7% 13%  1% 79%
[libx264 @ 0x55bcaa3c4d80] i8 v,h,dc,ddl,ddr,vr,hd,vl,hu: 11% 14% 23%  8% 10%  8% 10%  7%  9%
[libx264 @ 0x55bcaa3c4d80] i4 v,h,dc,ddl,ddr,vr,hd,vl,hu: 17% 18% 16%  9% 12%  8%  9%  5%  6%
[libx264 @ 0x55bcaa3c4d80] i8c dc,h,v,p: 59% 17% 15%  9%
[libx264 @ 0x55bcaa3c4d80] Weighted P-Frames: Y:0.0% UV:0.0%
[libx264 @ 0x55bcaa3c4d80] ref P L0: 62.2% 14.2% 18.2%  5.4%
[libx264 @ 0x55bcaa3c4d80] ref B L0: 89.9%  8.8%  1.4%
[libx264 @ 0x55bcaa3c4d80] ref B L1: 96.3%  3.7%
[libx264 @ 0x55bcaa3c4d80] kb/s:44512.31
